<?xml version="1.0" encoding="UTF-8" standalone="no"?>
<svg
   viewBox="0 0 122 72"
   version="1.1"
   id="svg8"
   sodipodi:docname="buffetd.svg"
   inkscape:version="1.4.3 (0d15f75, 2025-12-25)"
   xmlns:inkscape="http://www.inkscape.org/namespaces/inkscape"
   xmlns:sodipodi="http://sodipodi.sourceforge.net/DTD/sodipodi-0.dtd"
   xmlns="http://www.w3.org/2000/svg"
   xmlns:svg="http://www.w3.org/2000/svg">
  <defs
     id="defs8" />
  <sodipodi:namedview
     id="namedview8"
     pagecolor="#ffffff"
     bordercolor="#000000"
     borderopacity="0.25"
     inkscape:showpageshadow="2"
     inkscape:pageopacity="0.0"
     inkscape:pagecheckerboard="0"
     inkscape:deskcolor="#d1d1d1"
     showgrid="false"
     showguides="true"
     inkscape:zoom="8.656513"
     inkscape:cx="63.362696"
     inkscape:cy="43.608783"
     inkscape:window-width="2056"
     inkscape:window-height="1232"
     inkscape:window-x="0"
     inkscape:window-y="25"
     inkscape:window-maximized="1"
     inkscape:current-layer="svg8">
    <sodipodi:guide
       position="7.739837,64.375683"
       orientation="0,-1"
       id="guide8"
       inkscape:locked="false" />
    <sodipodi:guide
       position="18.021113,9.3881842"
       orientation="0,-1"
       id="guide9"
       inkscape:locked="false" />
  </sodipodi:namedview>
  <g
     id="cocktail"
     fill="none"
     stroke="currentColor"
     stroke-linecap="round"
     stroke-linejoin="round"
     stroke-miterlimit="10"
     stroke-width="2"
     transform="matrix(0.89204594,0,0,0.7328891,-3.8102926,10.579876)"
     style="stroke:#ffffff;stroke-opacity:1">
    <line
       x1="45.686298"
       x2="53.667999"
       y1="20.065701"
       y2="20.065701"
       id="line1"
       style="stroke:#ffffff;stroke-opacity:1" />
    <line
       x1="18.0445"
       x2="37.086102"
       y1="20.065701"
       y2="20.065701"
       id="line2"
       style="stroke:#ffffff;stroke-opacity:1" />
    <line
       x1="36"
       x2="36"
       y1="44"
       y2="67"
       id="line3"
       style="stroke:#ffffff;stroke-opacity:1" />
    <line
       x1="20"
       x2="52"
       y1="67"
       y2="67"
       id="line4"
       style="stroke:#ffffff;stroke-opacity:1" />
    <polyline
       points="61,11 48.5,27.5 36,44 23.5,27.5 11.2385,11.3149"
       id="polyline4"
       style="stroke:#ffffff;stroke-opacity:1" />
    <line
       x1="11.2385"
       x2="11"
       y1="11.3149"
       y2="11"
       id="line5"
       style="stroke:#ffffff;stroke-opacity:1" />
    <line
       x1="39"
       x2="55"
       y1="23"
       y2="4"
       id="line6"
       style="stroke:#ffffff;stroke-opacity:1" />
  </g>
  <g
     id="plate"
     fill="none"
     stroke="currentColor"
     stroke-linecap="round"
     stroke-linejoin="round"
     stroke-miterlimit="10"
     stroke-width="2"
     transform="translate(51.689601,-0.69311973)"
     style="stroke-width:1.62141732;stroke-dasharray:none;stroke:#ffffff;stroke-opacity:1">
    <path
       d="M 66.1204,26.2961 C 66.1204,20.353 61,14.1351 61,16 c 0,1.8649 0.9471,26.6324 0.9471,26.6324 L 61,58.8287 c 0,1.1046 0.8954,2 2,2 1.1046,0 2,-0.8954 2,-2 L 64.4711,42.5394 c 0,0 1.6493,-10.3002 1.6493,-16.2433 z"
       id="path6"
       style="stroke-width:1.62141732;stroke-dasharray:none;stroke:#ffffff;stroke-opacity:1" />
    <path
       d="m 11.4211,16.7398 c 0,0 0.1115,4.158 0.1115,8.1058 0,2.9609 -0.8993,4.8203 -2.1809,5.565 v 0 l 0.0285,28.4181 c 0,1.1046 -0.8954,2 -2,2 -1.1046,0 -2,-0.8954 -2,-2 L 6.191,30.4165 v 0 C 4.904,29.6757 4,27.8142 4,24.8456 4,20.8978 4.1115,16.7398 4.1115,16.7398"
       id="path7"
       style="stroke-width:1.62141732;stroke-dasharray:none;stroke:#ffffff;stroke-opacity:1" />
    <line
       x1="7.7663002"
       x2="7.7663002"
       y1="16.739799"
       y2="26.324699"
       id="line7"
       style="stroke-width:1.62141732;stroke-dasharray:none;stroke:#ffffff;stroke-opacity:1" />
    <circle
       cx="36"
       cy="35.958302"
       r="19.9583"
       id="circle7"
       style="stroke-width:1.62141732;stroke-dasharray:none;stroke:#ffffff;stroke-opacity:1" />
    <circle
       cx="36.0042"
       cy="36"
       r="12.1495"
       id="circle8"
       style="stroke-width:1.62141732;stroke-dasharray:none;stroke:#ffffff;stroke-opacity:1" />
  </g>
</svg>
