<svg viewBox="0 0 122 72" xmlns="http://www.w3.org/2000/svg">
  <g id="cocktail" fill="none" stroke="currentColor" stroke-linecap="round" stroke-linejoin="round" stroke-miterlimit="10" stroke-width="2" transform="translate(-4 0)">
    <line x1="45.6863" x2="53.668" y1="20.0657" y2="20.0657"/>
    <line x1="18.0445" x2="37.0861" y1="20.0657" y2="20.0657"/>
    <line x1="36" x2="36" y1="44" y2="67"/>
    <line x1="20" x2="52" y1="67" y2="67"/>
    <polyline points="61,11 48.5,27.5 36,44 23.5,27.5 11.2385,11.3149"/>
    <line x1="11.2385" x2="11" y1="11.3149" y2="11"/>
    <line x1="39" x2="55" y1="23" y2="4"/>
  </g>
  <g id="plate" fill="none" stroke="currentColor" stroke-linecap="round" stroke-linejoin="round" stroke-miterlimit="10" stroke-width="2" transform="translate(54 0)">
    <path d="M66.1204,26.2961 C66.1204,20.353,61,14.1351,61,16s0.9471,26.6324,0.9471,26.6324L61,58.8287c0,1.1046,0.8954,2,2,2s2-0.8954,2-2l-0.5289-16.2893 C64.4711,42.5394,66.1204,32.2392,66.1204,26.2961z"/>
    <path d="M11.4211,16.7398c0,0,0.1115,4.158,0.1115,8.1058c0,2.9609-0.8993,4.8203-2.1809,5.565l0,0l0.0285,28.4181c0,1.1046-0.8954,2-2,2 s-2-0.8954-2-2L6.191,30.4165l0,0C4.904,29.6757,4,27.8142,4,24.8456c0-3.9478,0.1115-8.1058,0.1115-8.1058"/>
    <line x1="7.7663" x2="7.7663" y1="16.7398" y2="26.3247"/>
    <circle cx="36" cy="35.9583" r="19.9583"/>
    <circle cx="36.0042" cy="36" r="12.1495"/>
  </g>
</svg>
